<?xml version="1.0" encoding="UTF-8" standalone="no"?>
<svg width="26px" height="23px" viewBox="0 0 26 23" version="1.1" xmlns="http://www.w3.org/2000/svg" xmlns:xlink="http://www.w3.org/1999/xlink">
    <!-- Generator: Sketch 3.8.3 (29802) - http://www.bohemiancoding.com/sketch -->
    <title>下载</title>
    <desc>Created with Sketch.</desc>
    <defs></defs>
    <g id="Page-1" stroke="none" stroke-width="1" fill="none" fill-rule="evenodd">
        <g id="赛事公告三级界面" transform="translate(-919.000000, -797.000000)" fill="#FFFFFF">
            <g id="左侧" transform="translate(866.000000, 289.000000)">
                <g id="下载" transform="translate(53.000000, 508.000000)">
                    <path d="M21.6622764,22.9958647 L4.35183621,22.9958647 C1.96510571,22.9958647 0.0242410549,21.2770211 0.0242410549,19.1637642 L0.0242410549,12.4567837 C0.0242410549,11.9276449 0.50812394,11.4986398 1.10614729,11.4986398 C1.70417064,11.4986398 2.18805353,11.9276449 2.18805353,12.4567837 L2.18805353,19.1637642 C2.18805353,20.220142 3.15900725,21.079577 4.351866,21.079577 L21.6622764,21.079577 C22.8551053,21.079577 23.8260888,20.220142 23.8260888,19.1637642 L23.8260888,12.4567837 C23.8260888,11.9276449 24.3100015,11.4986398 24.9079951,11.4986398 C25.5059886,11.4986398 25.9899013,11.9276449 25.9899013,12.4567837 L25.9899013,19.1637642 C25.9898715,21.2770211 24.0490069,22.9958647 21.6622764,22.9958647 L21.6622764,22.9958647 Z" id="Shape"></path>
                    <path d="M11.9875087,13.3722882 L11.9875087,0.926260022 C11.9875087,0.415670388 12.4559584,0.000808042601 13.0325301,0.000808042601 C13.609072,0.000808042601 14.0775217,0.415670362 14.0775217,0.926260022 L14.0775217,13.3168782 L21.1267309,7.07819106 C21.5355927,6.71610012 22.1967791,6.71610012 22.6041513,7.07819106 C23.0114936,7.43893631 23.0130131,8.02596534 22.6041513,8.38525937 C22.6041513,8.38525937 13.7359345,16.2681713 13.7219016,16.2793853 C13.5526722,16.4138732 13.3348787,16.497252 13.0935778,16.5109725 C13.0496914,16.5137694 13.0151007,16.5137694 12.9729423,16.5109725 C12.7300921,16.4985713 12.5123582,16.4153508 12.3431288,16.2793853 C12.3289171,16.2681713 3.4093655,8.39404581 3.4093655,8.39404581 C3.00199337,8.03330056 3.00199337,7.44624515 3.4093655,7.08697749 C3.81837628,6.72755152 4.48108221,6.72755152 4.88693484,7.08829677 L11.9875087,13.3722882 L11.9875087,13.3722882 Z" id="Shape"></path>
                </g>
            </g>
        </g>
    </g>
</svg>