<?xml version="1.0" encoding="UTF-8" standalone="no"?>
<svg width="19px" height="18px" viewBox="0 0 19 18" version="1.1" xmlns="http://www.w3.org/2000/svg" xmlns:xlink="http://www.w3.org/1999/xlink">
    <!-- Generator: Sketch 3.8.3 (29802) - http://www.bohemiancoding.com/sketch -->
    <title>注册图标</title>
    <desc>Created with Sketch.</desc>
    <defs></defs>
    <g id="蓝色" stroke="none" stroke-width="1" fill="none" fill-rule="evenodd">
        <g id="首页" transform="translate(-932.000000, -246.000000)" fill="#3D96D5">
            <g id="导航" transform="translate(0.000000, 217.000000)">
                <g id="注册图标" transform="translate(932.000000, 29.000000)">
                    <path d="M18.0818972,6.91864304 C17.8132174,6.91864304 17.5953886,7.13543054 17.5937947,7.40283912 L17.5937947,16.0385939 C17.5937947,16.5764593 17.156491,17.0119101 16.6176157,17.0119101 L1.97187414,17.0119101 C1.43299891,17.0119101 0.995695181,16.5764593 0.995695181,16.0385939 L0.995695181,1.95011659 C0.995695181,1.41225123 1.43299889,0.976852515 1.97187414,0.976852515 L11.4046994,0.976852515 C11.6739541,0.976435663 11.8923577,0.75865817 11.8923577,0.490207468 C11.8923577,0.221339915 11.6739541,0.0035624215 11.4046994,0.0035624215 L1.87430067,0.00356239604 C0.849726951,0.00356239604 0.019490127,0.831372238 0.019490127,1.85283446 L0.019490127,16.1358761 C0.019490127,17.1574686 0.849779223,17.9852784 1.87430067,17.9852784 L16.7152153,17.9852784 C17.739789,17.9852784 18.5700259,17.1573643 18.5700259,16.1358761 L18.5700259,7.40281308 C18.5685625,7.13540449 18.3506031,6.91864304 18.0818972,6.91864304 L18.0818972,6.91864304 L18.0818972,6.91864304 L18.0818972,6.91864304 L18.0818972,6.91864304 Z M9.00735523,13.1546768 L18.2942645,3.89638418 C18.8467018,3.34590912 18.7959029,2.39817707 18.1804636,1.78566968 L17.3033999,0.910104594 C16.6885355,0.296502976 15.7383569,0.245412942 15.1858152,0.795757723 L5.89893202,10.0559522 L9.00738138,13.1546508 L9.00735523,13.1546768 L9.00735523,13.1546768 L9.00735523,13.1546768 Z M15.877714,1.48715376 C16.087625,1.27841667 16.4478159,1.2973833 16.6814539,1.52980261 L17.5589619,2.40476848 C17.7919467,2.63862071 17.8116234,2.99729317 17.6017124,3.20545708 L16.5711285,4.23296361 L14.8607444,2.50100847 L15.877714,1.48715376 L15.877714,1.48715376 L15.877714,1.48715376 L15.877714,1.48715376 Z M15.8420189,4.9599221 L8.93740234,11.8449896 L7.21282911,10.1261392 L14.131661,3.22807117 L15.8420451,4.95987001 L15.8420451,4.9599221 L15.8420189,4.9599221 L15.8420189,4.9599221 Z M5.89443747,10.073512 L4.93984279,13.5611306 C4.89811144,13.7136452 4.94185489,13.8751741 5.0524939,13.9876452 C5.1647269,14.0979799 5.32734066,14.1410456 5.47971101,14.099986 L8.97811456,13.1487888 L8.26207058,12.4335543 L5.99052147,13.0523925 L6.60998498,10.7864018 L5.89443747,10.073512 L5.89443747,10.073512 L5.89443747,10.073512 L5.89443747,10.073512 Z"></path>
                </g>
            </g>
        </g>
    </g>
</svg>