<?xml version="1.0" encoding="UTF-8" standalone="no"?>
<svg width="25px" height="25px" viewBox="0 0 25 25" version="1.1" xmlns="http://www.w3.org/2000/svg" xmlns:xlink="http://www.w3.org/1999/xlink">
    <!-- Generator: Sketch 3.8.3 (29802) - http://www.bohemiancoding.com/sketch -->
    <title>报名入口icon</title>
    <desc>Created with Sketch.</desc>
    <defs></defs>
    <g id="Page-1" stroke="none" stroke-width="1" fill="none" fill-rule="evenodd">
        <g id="赛事公告三级界面" transform="translate(-919.000000, -848.000000)" fill="#FFFFFF">
            <g id="左侧" transform="translate(866.000000, 289.000000)">
                <g id="报名入口icon" transform="translate(53.000000, 559.000000)">
                    <path d="M23.2928554,24.9790635 L1.68882188,24.9790635 C0.758713739,24.9790635 0.00200878378,24.2223585 0.00200878378,23.2922504 L0.00200878378,1.68821686 C0.00200878378,0.758108727 0.758713767,0.00140377252 1.68882188,0.00140377252 L23.2928554,0.00140377252 C24.2229636,0.00140377252 24.9796685,0.758108756 24.9796685,1.68821686 L24.9796685,23.2922504 C24.9796397,24.2223874 24.2229635,24.9790635 23.2928554,24.9790635 L23.2928554,24.9790635 Z M1.68882187,1.15377562 C1.39413159,1.15377562 1.15438063,1.39352658 1.15438063,1.68821686 L1.15438063,23.2922504 C1.15438063,23.5869407 1.39413159,23.8266917 1.68882187,23.8266917 L23.2928554,23.8266917 C23.5875457,23.8266917 23.8272967,23.5869407 23.8272967,23.2922504 L23.8272967,1.68821686 C23.8272967,1.39352658 23.5875457,1.15377562 23.2928554,1.15377562 L1.68882187,1.15377562 L1.68882187,1.15377562 Z" id="Shape"></path>
                    <path d="M10.7883245,15.266816 C10.5800045,15.266816 10.3711083,15.1919694 10.205282,15.0403173 L4.20920315,9.55641016 C3.85695189,9.23426461 3.83257922,8.68757942 4.15472477,8.33535695 C4.47689913,7.98316332 5.02358435,7.95873302 5.37577798,8.28087858 L11.371828,13.7647857 C11.7240793,14.0869312 11.7484519,14.6336164 11.4263064,14.9858677 C11.2558418,15.1722351 11.0224576,15.266816 10.7883245,15.266816 L10.7883245,15.266816 Z" id="Shape"></path>
                    <path d="M10.7881516,15.2668448 C10.5896844,15.2668448 10.3902664,15.1988837 10.2274939,15.0599076 C9.86441036,14.7500349 9.82131166,14.2045308 10.1311844,13.8414473 L19.5318306,2.8271348 C19.8416458,2.46405124 20.3872074,2.42092373 20.750291,2.73082531 C21.1133745,3.04072689 21.156502,3.58623094 20.8466005,3.94928567 L11.4459543,14.963627 C11.2749999,15.1639092 11.0323104,15.2668448 10.7881516,15.2668448 L10.7881516,15.2668448 Z" id="Shape"></path>
                    <path d="M18.8000457,18.0265737 L6.18157399,18.0265737 C5.86334651,18.0265737 5.60538806,17.7686153 5.60538806,17.4503878 C5.60538806,17.1321603 5.86334651,16.8742019 6.18157399,16.8742019 L18.8000457,16.8742019 C19.1182732,16.8742019 19.3762316,17.1321603 19.3762316,17.4503878 C19.3762316,17.7686153 19.1182732,18.0265737 18.8000457,18.0265737 L18.8000457,18.0265737 Z" id="Shape"></path>
                    <path d="M20.0100361,21.3972613 L4.97158353,21.3972613 C4.65335605,21.3972613 4.39539761,21.1393029 4.39539761,20.8210754 C4.39539761,20.5028479 4.65335605,20.2448895 4.97158353,20.2448895 L20.0100361,20.2448895 C20.3282636,20.2448895 20.586222,20.5028479 20.586222,20.8210754 C20.586222,21.1393029 20.3282636,21.3972613 20.0100361,21.3972613 L20.0100361,21.3972613 Z" id="Shape"></path>
                </g>
            </g>
        </g>
    </g>
</svg>