<?xml version="1.0" standalone="no"?><!DOCTYPE svg PUBLIC "-//W3C//DTD SVG 1.1//EN" "http://www.w3.org/Graphics/SVG/1.1/DTD/svg11.dtd"><svg width="69.9375" height="64" viewBox="0 0 69.9375 64" version="1.1" xmlns="http://www.w3.org/2000/svg" xmlns:xlink="http://www.w3.org/1999/xlink"><defs><style type="text/css"><![CDATA[
@font-face { font-family: ifont; src: url("//at.alicdn.com/t/font_1442373896_4754455.eot?#iefix") format("embedded-opentype"), url("//at.alicdn.com/t/font_1442373896_4754455.woff") format("woff"), url("//at.alicdn.com/t/font_1442373896_4754455.ttf") format("truetype"), url("//at.alicdn.com/t/font_1442373896_4754455.svg#ifont") format("svg"); }

]]></style></defs><g class="transform-group"><g transform="scale(0.0625, 0.0625)"><path d="M1092.470376 125.179075 307.254626 125.179075c-14.151569 0-25.605975-11.454406-25.605975-25.605975s11.454406-25.605975 25.605975-25.605975l785.232821 0c14.134498 0 25.605975 11.454406 25.605975 25.605975S1106.604874 125.179075 1092.470376 125.179075zM1092.470376 543.358784 307.254626 543.358784c-14.151569 0-25.605975-11.454406-25.605975-25.605975s11.454406-25.605975 25.605975-25.605975l785.232821 0c14.134498 0 25.605975 11.454406 25.605975 25.605975S1106.604874 543.358784 1092.470376 543.358784zM1092.470376 961.555563 307.254626 961.555563c-14.151569 0-25.605975-11.471477-25.605975-25.605975s11.454406-25.605975 25.605975-25.605975l785.232821 0c14.134498 0 25.605975 11.471477 25.605975 25.605975S1106.604874 961.555563 1092.470376 961.555563zM101.007035 201.996999C45.305505 201.996999 0 156.691495 0 100.989964 0 45.305505 45.305505 0 101.007035 0s101.007035 45.305505 101.007035 100.989964C202.01407 156.691495 156.708565 201.996999 101.007035 201.996999zM101.007035 51.211949C73.55743 51.211949 51.211949 73.540359 51.211949 100.989964c0 27.449605 22.345481 49.795086 49.795086 49.795086s49.795086-22.345481 49.795086-49.795086C150.80212 73.540359 128.45664 51.211949 101.007035 51.211949zM101.007035 613.007035C45.305505 613.007035 0 567.68446 0 511.982929c0-55.68446 45.305505-100.989964 101.007035-100.989964s101.007035 45.305505 101.007035 100.989964C202.01407 567.68446 156.708565 613.007035 101.007035 613.007035zM101.007035 462.204914C73.55743 462.204914 51.211949 484.533324 51.211949 511.982929c0 27.466676 22.345481 49.795086 49.795086 49.795086s49.795086-22.345481 49.795086-49.795086C150.80212 484.533324 128.45664 462.204914 101.007035 462.204914zM101.007035 1024C45.305505 1024 0 978.694495 0 922.992965c0-55.68446 45.305505-100.989964 101.007035-100.989964s101.007035 45.305505 101.007035 100.989964C202.01407 978.694495 156.708565 1024 101.007035 1024zM101.007035 873.21495C73.55743 873.21495 51.211949 895.54336 51.211949 922.992965c0 27.449605 22.345481 49.795086 49.795086 49.795086s49.795086-22.345481 49.795086-49.795086C150.80212 895.54336 128.45664 873.21495 101.007035 873.21495z" fill="#3D96D5"></path></g></g></svg>