<?xml version="1.0" encoding="UTF-8" standalone="no"?>
<svg width="26px" height="23px" viewBox="0 0 26 23" version="1.1" xmlns="http://www.w3.org/2000/svg" xmlns:xlink="http://www.w3.org/1999/xlink">
    <!-- Generator: Sketch 3.8.3 (29802) - http://www.bohemiancoding.com/sketch -->
    <title>upload</title>
    <desc>Created with Sketch.</desc>
    <defs></defs>
    <g id="Page-1" stroke="none" stroke-width="1" fill="none" fill-rule="evenodd">
        <g id="upload" fill="#FFFFFF">
            <g id="Page-1">
                <g id="download">
                    <g id="Page-1">
                        <g id="赛事公告三级界面">
                            <g id="左侧">
                                <g id="下载">
                                    <path d="M21.6879471,11.2300085 L4.43979195,11.2300085 C2.06164919,11.2300085 0.127768,9.58278335 0.127768,7.55757882 L0.127768,1.13005584 C0.127768,0.622964488 0.609909817,0.2118346 1.20578141,0.2118346 C1.801653,0.2118346 2.28379482,0.622964488 2.28379482,1.13005584 L2.28379482,7.55757882 C2.28379482,8.56994088 3.25125493,9.39356609 4.43982163,9.39356609 L21.6879471,9.39356609 C22.8764841,9.39356609 23.8439739,8.56994088 23.8439739,7.55757882 L23.8439739,1.13005584 C23.8439739,0.622964488 24.3261454,0.2118346 24.9219873,0.2118346 C25.5178292,0.2118346 26.0000007,0.622964488 26.0000007,1.13005584 L26.0000007,7.55757882 C25.999971,9.58278335 24.0660899,11.2300085 21.6879471,11.2300085 L21.6879471,11.2300085 L21.6879471,11.2300085 L21.6879471,11.2300085 Z" id="Shape" transform="translate(13.063884, 5.720922) rotate(180.000000) translate(-13.063884, -5.720922) "></path>
                                    <path d="M12.1048562,19.8143352 L12.1048562,7.88689148 C12.1048562,7.39757641 12.5322377,7 13.0582623,7 C13.5842598,7 14.0116413,7.39757639 14.0116413,7.88689148 L14.0116413,19.7612339 L20.4428586,13.7824921 C20.8158762,13.4354882 21.4190975,13.4354882 21.7907561,13.7824921 C22.1623874,14.1282063 22.1637737,14.6907757 21.7907561,15.0350992 C21.7907561,15.0350992 13.7000005,22.5895565 13.6871978,22.6003032 C13.5328045,22.7291874 13.3341046,22.8090921 13.1139581,22.8222409 C13.0739191,22.8249213 13.0423609,22.8249213 13.0038985,22.8222409 C12.7823386,22.8103565 12.583693,22.7306035 12.4292997,22.6003032 C12.4163339,22.5895565 4.27874389,15.0435195 4.27874389,15.0435195 C3.90708537,14.6978053 3.90708537,14.1352106 4.27874389,13.7909124 C4.65189741,13.4464625 5.25650506,13.4464625 5.62677729,13.7921767 L12.1048562,19.8143352 L12.1048562,19.8143352 L12.1048562,19.8143352 L12.1048562,19.8143352 Z" id="Shape" transform="translate(13.035000, 14.912126) rotate(-180.000000) translate(-13.035000, -14.912126) "></path>
                                </g>
                            </g>
                        </g>
                    </g>
                </g>
            </g>
        </g>
    </g>
</svg>