<?xml version="1.0" encoding="UTF-8" standalone="no"?>
<svg width="19px" height="21px" viewBox="0 0 19 21" version="1.1" xmlns="http://www.w3.org/2000/svg" xmlns:xlink="http://www.w3.org/1999/xlink">
    <!-- Generator: Sketch 3.8.3 (29802) - http://www.bohemiancoding.com/sketch -->
    <title>登录图标</title>
    <desc>Created with Sketch.</desc>
    <defs></defs>
    <g id="蓝色" stroke="none" stroke-width="1" fill="none" fill-rule="evenodd">
        <g id="首页" transform="translate(-839.000000, -244.000000)" fill="#3D96D5">
            <g id="导航" transform="translate(0.000000, 217.000000)">
                <path d="M857.483433,46.7037104 C857.483433,47.0074316 857.237691,47.2505075 856.93626,47.2505075 C856.63223,47.2505075 856.363678,47.0074316 856.363678,46.7037104 C855.307283,43.2201992 852.072164,40.6834776 848.241729,40.6834776 C844.411293,40.6834776 841.160984,43.3416877 840.104515,46.8251989 L840.119779,46.7037104 C840.119779,47.0682748 839.757463,47.2505075 839.547173,47.2505075 C839.243243,47.2505075 839,47.0074316 839,46.7037104 C839.015166,46.6454631 839.017788,46.5872406 839.035477,46.5264964 C839.040499,46.5112423 839.043097,46.4935654 839.048119,46.4809073 C839.942443,43.4227048 842.316216,40.9948383 845.348591,40.0353659 C843.015416,38.9442685 841.396583,36.5847857 841.396583,33.8404409 C841.396583,30.063246 844.459412,27 848.241729,27 C852.021522,27 855.08685,30.063246 855.08685,33.8404409 C855.08685,36.5847857 853.465518,38.9442685 851.134842,40.0353659 C854.167316,40.9948383 856.541113,43.4227048 857.435314,46.4809073 C857.442958,46.4960624 857.480934,46.6884563 857.483433,46.7037104 L857.483433,46.7037104 L857.483433,46.7037104 Z M853.992503,33.8404409 C853.992503,30.6657686 851.418585,28.093718 848.241729,28.093718 C845.064873,28.093718 842.490929,30.6657686 842.490929,33.8404409 C842.490929,37.0151131 845.064873,39.5872626 848.241729,39.5872626 C851.418585,39.5897844 853.992503,37.0176348 853.992503,33.8404409 L853.992503,33.8404409 L853.992503,33.8404409 Z" id="登录图标"></path>
            </g>
        </g>
    </g>
</svg>